<?xml version="1.0" encoding="iso-8859-1"?>
<!-- Generator: Adobe Illustrator 16.0.0, SVG Export Plug-In . SVG Version: 6.00 Build 0)  -->
<!DOCTYPE svg PUBLIC "-//W3C//DTD SVG 1.1//EN" "http://www.w3.org/Graphics/SVG/1.1/DTD/svg11.dtd">
<svg version="1.1" id="Capa_1" xmlns="http://www.w3.org/2000/svg" xmlns:xlink="http://www.w3.org/1999/xlink" x="0px" y="0px"
	 width="356.91px" height="356.91px" viewBox="0 0 356.91 356.91" style="enable-background:new 0 0 356.91 356.91;"
	 xml:space="preserve">
<g>
	<g>
		<path d="M269.192,339.498H87.704c-4.807,0-8.704,3.896-8.704,8.707c0,4.809,3.896,8.705,8.704,8.705h181.489
			c4.809,0,8.703-3.896,8.703-8.705C277.896,343.395,273.999,339.498,269.192,339.498z"/>
		<path d="M48.867,88.068l105.685-25.126c13.003-5.065,6.389-26.891-5.508-23.165L43.358,64.907
			c-7.462,1.774-12.532,7.332-10.76,14.793C34.374,87.162,41.404,89.843,48.867,88.068z"/>
		<path d="M295.179,116.085h-32.133c0.088-0.543,0.146-1.098,0.146-1.667c0-5.611-4.549-10.164-10.164-10.164h-65.471V28.124
			c0-4.807-3.896-8.704-8.706-8.704c-4.809,0-8.705,3.896-8.705,8.704v76.131h-66.4c-5.615,0-10.165,4.553-10.165,10.164
			c0,0.569,0.058,1.123,0.148,1.667H61.719c-17.459,0-31.745,14.286-31.745,31.745v150.449c0,17.459,14.286,31.746,31.745,31.746
			h233.46c17.459,0,31.744-14.287,31.744-31.746V147.831C326.923,130.371,312.638,116.085,295.179,116.085z M155.118,255.961
			c0,11.779-9.639,21.422-21.424,21.422H69.611c-7.418,0-13.983-3.828-17.832-9.602h28.161c5.615,0,10.165-4.554,10.165-10.164
			c0-5.615-4.55-10.166-10.165-10.166H62.029v-30.105c0-5.615-4.552-10.164-10.165-10.164c-1.298,0-2.535,0.252-3.676,0.695v-47.489
			c0-11.78,9.642-21.421,21.422-21.421h64.083c11.785,0,21.424,9.641,21.424,21.421L155.118,255.961L155.118,255.961z
			 M300.981,207.937c-1.186-0.483-2.479-0.754-3.836-0.754c-5.613,0-10.164,4.549-10.164,10.164v30.106h-19.139
			c-5.615,0-10.164,4.549-10.164,10.164c0,5.611,4.549,10.166,10.164,10.166h29.549c-3.85,5.772-10.412,9.601-17.834,9.601h-64.083
			c-11.78,0-21.422-9.642-21.422-21.423v-95.573c0-11.78,9.642-21.421,21.422-21.421h64.083c11.783,0,21.424,9.641,21.424,21.421
			V207.937L300.981,207.937z"/>
		<path d="M210.137,48.82l105.687-25.13c7.461-1.775,12.531-7.333,10.758-14.794s-8.803-10.143-16.268-8.368L204.628,25.654
			C191.626,30.72,198.239,52.544,210.137,48.82z"/>
	</g>
</g>
<g>
</g>
<g>
</g>
<g>
</g>
<g>
</g>
<g>
</g>
<g>
</g>
<g>
</g>
<g>
</g>
<g>
</g>
<g>
</g>
<g>
</g>
<g>
</g>
<g>
</g>
<g>
</g>
<g>
</g>
</svg>
