<svg id="Capa_1" enable-background="new 0 0 511.928 511.928" height="512" viewBox="0 0 511.928 511.928" width="512" xmlns="http://www.w3.org/2000/svg"><g><path d="m493.029 286.928h-132.065v75h133.631c2.31-25.099 1.637-50.603-1.566-75z"/><path d="m180.964 511.928h150c0-21.728 0-201.17 0-225h-150zm30-135h30v30h-30z"/><path d="m487.701 256.928c-17.159-76.471-54.138-117.947-56.523-122h-160.214v-47.58c12.764-4.527 22.893-14.656 27.42-27.42h107.58v-30h-107.58c-14.15-39.894-70.683-39.914-84.84 0h-107.58v30h107.58c4.527 12.764 14.656 22.893 27.42 27.42v47.58h-160.214c-2.31 3.923-39.401 45.697-56.523 122z"/><path d="m73.208 511.928h77.756v-120h-129.39c13.648 71.228 48.884 115.015 51.634 120z"/><path d="m360.964 511.928h77.756c2.682-4.86 38.027-48.985 51.635-120h-129.391z"/><path d="m17.333 361.928h133.631v-75h-132.064c-3.203 24.392-3.877 49.896-1.567 75z"/></g></svg>