<svg id="Capa_1" enable-background="new 0 0 512 512" height="512" viewBox="0 0 512 512" width="512" xmlns="http://www.w3.org/2000/svg"><g><g><g><g><path d="m256 272c8.284 0 15-6.716 15-15s-6.716-15-15-15h-15v30z"/><path d="m396 432c-8.284 0-15 6.716-15 15 0 19.299-15.701 35-35 35h-9.023c2.554-4.414 4.023-9.534 4.023-15v-110c0-24.853-20.147-45-45-45h-55v-40h-90v65c0 5.261.912 10.307 2.571 15h-27.571c-8.271 0-15-6.729-15-15v-65h40v-30h-40v-138.899c-4.796 1.239-9.822 1.899-15 1.899s-10.204-.66-15-1.899v233.899c0 24.813 20.187 45 45 45h155v85c0 5.466 1.469 10.586 4.023 15h-69.023c-8.284 0-15 6.716-15 15s6.716 15 15 15h130c35.841 0 65-29.159 65-65 0-8.284-6.716-15-15-15z"/></g><path d="m38.285 28.641-24.221 1.514c-8.268.517-14.551 7.638-14.034 15.907.497 7.95 7.099 14.065 14.956 14.065.315 0 .632-.01.95-.03l21.671-1.354c-1.04-4.417-1.607-9.014-1.607-13.743 0-5.671.808-11.154 2.285-16.359z"/><path d="m511.97 14.065c-.517-8.269-7.669-14.557-15.906-14.035l-344.825 21.552c3.063 7.199 4.761 15.114 4.761 23.418 0 2.15-.119 4.272-.341 6.364l342.275-21.392c7.953-.497 14.07-7.105 14.065-14.967 0-.312-.01-.625-.029-.94z"/></g><path d="m96 75c-16.542 0-30-13.458-30-30s13.458-30 30-30 30 13.458 30 30-13.458 30-30 30z"/></g><g><path d="m166.711 172.852c-9.614 8.253-15.711 20.485-15.711 34.148v35h90v-35c0-2.183-.164-4.326-.464-6.426-4.705.928-9.563 1.426-14.536 1.426-24.096 0-45.559-11.434-59.289-29.148z"/></g><path d="m226 172c-24.813 0-45-20.187-45-45s20.187-45 45-45 45 20.187 45 45-20.187 45-45 45z"/></g></svg>