<?xml version="1.0"?>
<svg version="1.1" id="圖層_1" xmlns="http://www.w3.org/2000/svg" x="0" y="0" viewBox="0 0 100 100" xml:space="preserve"><path d="M48.272 90.454c-8.07 0-15.646-.484-21.331-1.362-3.148-.486-7.078-1.252-10.035-2.894-3.472-.839-6.015-4.006-6.015-7.629 0-4.33 3.523-7.853 7.853-7.853a7.838 7.838 0 0 1 7.068 4.43c3.047.693 8.477 1.416 16.021 1.689V55.508a5.624 5.624 0 0 1-3.089-5.016v-4.455c-5.609-2.994-9.129-8.363-9.129-14.161 0-2.192.488-4.342 1.427-6.336l-19.823-5.838a5.19 5.19 0 0 1-3.508-6.436 5.211 5.211 0 0 1 4.971-3.719c.495 0 .987.071 1.464.211l21.747 6.405a7.282 7.282 0 0 1 2.777-.547 7.277 7.277 0 0 1 6.009 3.135L88.78 31.74a5.19 5.19 0 0 1 3.508 6.436 5.213 5.213 0 0 1-4.971 3.72c-.495 0-.988-.071-1.464-.211l-29.952-8.822a5.605 5.605 0 0 1 1.899 4.208v13.423a5.624 5.624 0 0 1-3.089 5.016v21.327c7.545-.273 12.975-.995 16.021-1.689a7.834 7.834 0 0 1 7.067-4.43c4.33 0 7.853 3.523 7.853 7.853 0 3.622-2.542 6.79-6.014 7.629-2.957 1.643-6.887 2.408-10.035 2.894-5.685.876-13.261 1.36-21.331 1.36zm-7.297-60.565a4.103 4.103 0 0 0-.536 1.986c0 .352.048.7.142 1.042a5.598 5.598 0 0 1 3.781-1.466h6.751l-8.334-2.455a7.365 7.365 0 0 1-1.804.893z" fill="#d1d1d1"/><g><path d="M87.317 38.753c-.191 0-.385-.027-.578-.084L12.106 16.688a2.042 2.042 0 1 1 1.154-3.917l74.633 21.981a2.043 2.043 0 0 1-.576 4.001z" fill="#454545"/></g><path d="M82.511 78.568a4.709 4.709 0 0 0-9.347-.82c-3.568 1.119-12.221 2.339-24.891 2.339s-21.324-1.22-24.891-2.338a4.71 4.71 0 1 0-5.343 5.472c2.376 1.466 5.901 2.228 9.382 2.766 5.532.855 12.937 1.325 20.851 1.325s15.32-.471 20.851-1.325c3.482-.538 7.006-1.3 9.382-2.766a4.707 4.707 0 0 0 4.006-4.653z" fill="#454545"/><path d="M41.885 50.492a2.477 2.477 0 0 0 2.476 2.476h7.821a2.476 2.476 0 0 0 2.476-2.476V37.069a2.476 2.476 0 0 0-2.476-2.476h-7.821a2.477 2.477 0 0 0-2.476 2.476v13.423z" fill="#454545"/><path fill="#454545" d="M44.974 52.026h6.596v29.841h-6.596z"/><g><path d="M48.744 45.344c-8.816 0-15.987-6.042-15.987-13.469 0-4.255 2.3-8.167 6.31-10.732l2.447 3.826c-2.679 1.714-4.216 4.231-4.216 6.906 0 4.923 5.135 8.927 11.446 8.927v4.542z" fill="#454545"/></g><circle cx="38.671" cy="22.939" r="4.183" fill="#454545"/><metadata xmlns:d="https://loading.io/stock/"><d:name>drag lift</d:name><d:tags>pump,drag lift,map</d:tags><d:license>free</d:license><d:slug>cfbpar</d:slug></metadata></svg>